<svg width="500" height="253" viewBox="0 0 500 253" fill="none" xmlns="http://www.w3.org/2000/svg">
<path d="M237.226 173.664L262.512 228.053H211.941L237.226 173.664Z" fill="#ED1B76"/>
<ellipse cx="151.46" cy="83.9695" rx="31.0219" ry="32.4427" fill="#ED1B76"/>
<rect x="394.161" y="158.397" width="62.0438" height="61.0687" fill="#ED1B76"/>
<path d="M102.19 51.5267H51.0949C46.0485 51.5267 35.9557 54.5801 35.9557 66.7939C35.9557 79.0076 46.0485 83.3333 51.0949 83.9694H90.8354C94.6202 83.9694 102.19 87.0229 102.19 99.2366C102.19 111.45 94.6202 115.776 90.8354 116.412H0" stroke="white" stroke-width="10"/>
<path d="M209.854 49.6183V89.6947C209.854 98.6005 215.693 116.412 239.051 116.412C262.409 116.412 269.465 98.6005 270.073 89.6947V0" stroke="white" stroke-width="10"/>
<path d="M326.642 118.321V51.5267H383.212C391.119 50.8906 406.934 56.4886 406.934 83.9695C406.934 111.45 391.119 118.321 383.212 118.321H326.642Z" stroke="white" stroke-width="10"/>
<path d="M456.204 158.397H394.161V223.282H456.204" stroke="white" stroke-width="10"/>
<path d="M500 190.84H430.657" stroke="white" stroke-width="10"/>
<path d="M291.971 225.191V156.489H295.62L324.818 225.191H332.117L361.314 156.489H364.964V225.191" stroke="white" stroke-width="10"/>
<path d="M297.445 49.6183V118.321" stroke="white" stroke-width="10"/>
<path d="M209.854 227.099L237.226 169.847L264.599 227.099" stroke="white" stroke-width="10"/>
<path d="M186.131 158.397H127.737C119.221 159.033 102.19 166.412 102.19 190.84C102.19 215.267 119.221 222.646 127.737 223.282H184.307M198.905 223.282H184.307M184.307 223.282L169.708 190.84M169.708 190.84H133.212M169.708 190.84L197.08 250" stroke="white" stroke-width="10"/>
<path d="M156.934 87.7862L187.956 154.58M153.285 51.5267C143.552 51.5267 124.088 58.0153 124.088 83.9694C124.088 109.924 143.552 116.412 153.285 116.412C163.625 116.412 184.307 109.924 184.307 83.9694C184.307 58.0153 163.625 51.5267 153.285 51.5267Z" stroke="white" stroke-width="10"/>
<path d="M153.678 188.402H168.395" stroke="white" stroke-width="3"/>
<path d="M150.208 188.702C151.32 188.781 152.43 188.897 153.545 188.928C154.554 188.955 155.562 188.925 156.569 189.001C157.915 189.102 159.234 189.205 160.584 189.253C161.72 189.294 162.844 189.368 163.981 189.36C164.952 189.352 165.894 189.104 166.862 189.057C167.456 189.028 168.44 188.79 168.97 189.157C169.512 189.532 169.974 190.204 170.339 190.739C170.924 191.597 171.47 192.479 171.745 193.487" stroke="white" stroke-width="3"/>
<path d="M144 188H172.835" stroke="white" stroke-width="3"/>
<path d="M171 187L183.382 213.041" stroke="white" stroke-width="3"/>
</svg>
